<svg width="28" height="28" viewBox="0 0 28 28" fill="none" xmlns="http://www.w3.org/2000/svg">
  <rect x="4" y="11" width="2" height="3" rx="1" fill="#C5C5C5"/>
  <rect x="7" y="9" width="2" height="5" rx="1" fill="#C5C5C5"/>
  <rect x="10" y="6" width="2" height="8" rx="1" fill="#C5C5C5"/>
  <rect x="13" y="4" width="2" height="10" rx="1" fill="#C5C5C5"/>
  <rect x="16" y="6" width="2" height="8" rx="1" fill="#C5C5C5"/>
  <rect x="19" y="9" width="2" height="5" rx="1" fill="#C5C5C5"/>
  <rect x="22" y="11" width="2" height="3" rx="1" fill="#C5C5C5"/>
  <rect x="7" y="14" width="2" height="5" rx="1" fill="#C5C5C5"/>
  <rect x="10" y="14" width="2" height="8" rx="1" fill="#C5C5C5"/>
  <rect x="13" y="14" width="2" height="10" rx="1" fill="#C5C5C5"/>
  <rect x="16" y="14" width="2" height="8" rx="1" fill="#C5C5C5"/>
  <rect x="19" y="14" width="2" height="5" rx="1" fill="#C5C5C5"/>
</svg>
